# xmcd CD database file
#
# Track frame offsets:
#	150
#	29474
#	47772
#	79666
#	108294
#	128384
#	147367
#	171920
#	197689
#	223817
#	238308
#
# Disc length: 3501 seconds
#
# Revision: 0
# Processed by: cddbd v1.5.2PL0 Copyright (c) Steve Scherf et al.
# Submitted via: CDex 1.51
#
DISCID=9a0dab0b
DTITLE=Matthew Lien - In So Many Words
DYEAR=2001
DGENRE=New Age
TTITLE0=Blue Lights
TTITLE1=People That You Hate
TTITLE2=Tears On Min Chuan Road
TTITLE3=Cause And Effect
TTITLE4=This Water
TTITLE5=Airstrip In Paradise
TTITLE6=Behind The Lines
TTITLE7=I Stand Amazed
TTITLE8=The Child Slips Away
TTITLE9=Life Of Ten (Intro)
TTITLE10=Life Of Ten
EXTD=YEAR: 2001
EXTT0=
EXTT1=
EXTT2=
EXTT3=
EXTT4=
EXTT5=
EXTT6=
EXTT7=
EXTT8=
EXTT9=
EXTT10=
PLAYORDER=
